<?xml version="1.0" encoding="UTF-8"?><svg id="Layer_1" xmlns="http://www.w3.org/2000/svg" viewBox="0 0 363.5 96.3"><path d="M43.4,63h4.4c.5,0,.9,0,1.2,0,.3,0,.6-.1.8-.3.2-.1.4-.3.6-.5.2-.2.4-.5.5-.8s.3-.8.5-1.3c.2-.5.3-1.3.6-2.3h1.7l-.3,6.7h-15v-.8c.7-.2,1.2-.4,1.4-.6.2-.2.4-.5.5-.9,0-.4.1-1,.1-1.8v-14.4c0-.8,0-1.3,0-1.7,0-.4-.1-.6-.3-.8-.1-.2-.3-.4-.5-.5-.2-.1-.6-.2-1.1-.4v-.8h7v.8c-.5.1-.8.3-1,.4-.2.1-.4.2-.5.4-.1.2-.2.5-.3.8,0,.4,0,1,0,1.8v17.1Z" fill="#fff"/><path d="M99.2,59.4c.2,1,.5,1.8.9,2.3.4.6.9,1,1.5,1.3.6.3,1.4.4,2.3.4s2.3-.3,3-1c.7-.7,1-1.7,1-3s-.1-1.5-.4-2.1c-.3-.6-.8-1.1-1.4-1.6-.7-.5-1.7-1.1-3-1.8-1.3-.6-2.3-1.3-3.1-1.9-.8-.6-1.3-1.3-1.7-2-.4-.7-.6-1.5-.6-2.4,0-1.2.3-2.3.9-3.2.6-.9,1.4-1.6,2.6-2.1,1.1-.5,2.4-.8,3.9-.8s1.7,0,2.5.1c.8,0,1.8.3,3,.6v4.5h-1.7c-.3-1-.6-1.7-1-2.3-.4-.5-.8-.9-1.4-1.1-.5-.2-1.2-.3-2-.3s-1.4.1-1.9.4c-.6.3-1,.7-1.4,1.2-.3.5-.5,1.2-.5,1.9s.1,1.5.4,2c.3.5.7,1.1,1.3,1.5.6.5,1.5,1,2.7,1.6,1.4.7,2.5,1.4,3.3,2,.8.6,1.4,1.3,1.8,2.1.4.8.7,1.7.7,2.7s-.2,2.2-.6,3c-.4.8-.9,1.5-1.5,2s-1.4.9-2.3,1.1c-.9.2-1.9.3-3,.3-1.7,0-3.8-.3-6-.9v-4.6h1.7Z" fill="#fff"/><path d="M154.9,60.4c0,.7,0,1.2.1,1.6,0,.4.2.7.3.9.2.2.4.4.6.5.3.1.7.3,1.2.4v.8h-7.3v-.8c.7-.2,1.2-.4,1.4-.6.2-.2.4-.5.5-.9,0-.4.1-1,.1-1.8v-14.4c0-.8,0-1.3,0-1.7,0-.4-.1-.6-.3-.8-.1-.2-.3-.4-.5-.5-.2-.1-.6-.2-1.1-.4v-.8h8.3c2.6,0,4.5.5,5.8,1.5,1.3,1,1.9,2.5,1.9,4.5s-.2,2.2-.6,3.1c-.4.9-1,1.7-1.7,2.3-.7.6-1.6,1-2.6,1.3-1,.3-2.1.4-3.2.4s-2.2,0-2.9,0v5.5ZM154.9,53.4h1.9c1.3,0,2.3-.2,3.1-.5.8-.3,1.4-.9,1.9-1.6.4-.8.7-1.8.7-3s-.1-1.8-.4-2.4c-.3-.6-.6-1.2-1.1-1.5-.5-.4-1-.7-1.6-.8-.6-.2-1.3-.2-2-.2-1.1,0-1.9,0-2.5,0v10.1Z" fill="#fff"/><path d="M187,60.4c0,.7,0,1.3,0,1.6s.1.6.3.8c.1.2.3.4.5.5.2.1.6.3,1.1.4v.8h-7v-.8c.7-.2,1.2-.4,1.4-.6.2-.2.4-.5.5-.9s.1-1,.1-1.8v-14.4c0-.8,0-1.3,0-1.7s-.1-.6-.3-.8c-.1-.2-.3-.4-.5-.5-.2-.1-.6-.2-1.1-.4v-.8h7v.8c-.5.1-.8.2-1.1.4-.2.1-.4.3-.5.5-.1.2-.2.5-.3.8,0,.4,0,.9,0,1.7v14.4Z" fill="#fff"/><path d="M213.7,63h4.4c.5,0,.9,0,1.2,0,.3,0,.6-.1.8-.3.2-.1.4-.3.6-.5.2-.2.4-.5.5-.8.2-.3.3-.8.5-1.3.2-.5.3-1.3.6-2.3h1.7l-.3,6.7h-15v-.8c.7-.2,1.2-.4,1.4-.6.2-.2.4-.5.5-.9s.1-1,.1-1.8v-14.4c0-.8,0-1.3,0-1.7s-.1-.6-.3-.8c-.1-.2-.3-.4-.5-.5-.2-.1-.6-.2-1.1-.4v-.8h7v.8c-.5.1-.8.3-1,.4-.2.1-.4.2-.5.4-.1.2-.2.5-.3.8,0,.4-.1,1-.1,1.8v17.1Z" fill="#fff"/><path d="M257.1,42.3v4.6h-1.7c-.3-1-.6-1.7-1-2.3-.4-.6-.9-1-1.4-1.2-.5-.2-1.2-.4-2-.4-1.1,0-2.2.4-3.1,1.1-.9.8-1.6,1.9-2.1,3.4-.5,1.5-.8,3.4-.8,5.5s.2,4,.6,5.6c.4,1.5,1,2.7,1.9,3.5.8.8,1.8,1.2,3,1.2s1.7-.1,2.2-.4,1.1-.7,1.5-1.2c.4-.6.8-1.4,1.1-2.5h1.7v4.8c-1,.3-2.1.5-3.2.6-1.1.1-2.3.2-3.6.2-2.8,0-5-1-6.4-2.9-1.4-1.9-2.2-4.8-2.2-8.6s.4-4.5,1.1-6.3c.8-1.8,1.9-3.2,3.3-4.2,1.5-1,3.2-1.5,5.2-1.5s1.9,0,2.8.2c.9.1,1.8.3,2.9.6Z" fill="#fff"/><path d="M288.2,64.6v-.8c.6-.1,1-.2,1.2-.4.3-.1.5-.3.6-.6.1-.2.2-.6.2-1s0-.8-.1-1.2c0-.4-.2-.9-.4-1.5l-.6-2.2h-7.8l-.6,1.6c-.3.8-.5,1.4-.6,1.9,0,.4-.1.8-.1,1.2,0,.7.2,1.2.5,1.5.3.3.9.5,1.6.6v.8h-7.1v-.8c.6,0,1.2-.5,1.6-1.1.5-.6.9-1.5,1.3-2.7l7-18.5h2.6l5.7,18.6c.3.9.5,1.5.7,2,.2.5.5.8.7,1.1.3.3.7.4,1.2.6v.8h-7.7ZM281.8,55.6h7l-3.2-10.8-3.8,10.8Z" fill="#fff"/><path d="M315.8,59.4c.2,1,.5,1.8.9,2.3.4.6.9,1,1.5,1.3.6.3,1.4.4,2.3.4s2.3-.3,3-1c.7-.7,1-1.7,1-3s-.1-1.5-.4-2.1c-.3-.6-.8-1.1-1.4-1.6s-1.7-1.1-3-1.8c-1.3-.6-2.3-1.3-3.1-1.9-.8-.6-1.3-1.3-1.7-2-.4-.7-.6-1.5-.6-2.4,0-1.2.3-2.3.9-3.2.6-.9,1.4-1.6,2.6-2.1,1.1-.5,2.4-.8,3.9-.8s1.7,0,2.5.1c.8,0,1.8.3,3,.6v4.5h-1.7c-.3-1-.6-1.7-1-2.3-.4-.5-.8-.9-1.4-1.1-.5-.2-1.2-.3-2-.3s-1.4.1-1.9.4c-.6.3-1,.7-1.4,1.2-.3.5-.5,1.2-.5,1.9s.1,1.5.4,2c.3.5.7,1.1,1.3,1.5s1.5,1,2.7,1.6c1.4.7,2.5,1.4,3.3,2,.8.6,1.4,1.3,1.8,2.1.4.8.7,1.7.7,2.7s-.2,2.2-.6,3-.9,1.5-1.5,2-1.4.9-2.3,1.1c-.9.2-1.9.3-3,.3-1.7,0-3.8-.3-6-.9v-4.6h1.7Z" fill="#fff"/><path d="M45.8.6s1,1.2,1,1.5c0,0,.3,1,.8,1.4s1.6,1,1.6,1.5.7,1.3.7,1.3l1.2.7.4,1.2v.7l.9.3s0,1,.4,1.2.6.7,1.2,1.3.1.3,1.2,2.1,2,2,2.3,2.6,3.9,6.5,4.7,7.8,1.7,3.3,2.3,3.6.5,1.6.3,1.5,1.2,2.3.8,2.5-1.2,1-1.2,1c0,0-2-.1-2.4-1.1s-1.4-1.7-1.6-1.8-.9-.1-1.3,0,.7,2.1,1.5,3.5,1.6,2.5,1.8,3.7,2.5,4.4,2.8,5,.5,2.3.5,2.3l-.4,1.6s-.4-.5-.9-.9-.7-1.6-.7-1.6l-.3,2.2-.7.4-1.5-1.7s0,2.4,0,2.8,1.4,3.1,2.2,3.6-.5,1.1-.5,1.1l-1.9-1.4s.3,0,.7,1.4.5,2.3,1.4,3.3.4,2.5.9,3.5,2,2.3,2,2.3c0,0-.7,1.7-1.3.9s-1.7-3.3-2.3-2.2-2.4,0-2.6-.7-.9-2.3-.9-2.3c0,0-1,.6-.8,1.4s1.6,2.8,1.6,2.8c0,0,1.2,1.6,1,1.8s-1.2.3-1.5,0-2.7-2.5-2.5-2.8-1-1.9-1-1.9l-.3-1.9s-1.3-2.8-1.2-2.8,1.1,0,1.1,0l.5-1-2.5-1.9s-.7-2.5-.9-2.6-.5-2.5-1.3-3.7-1.5-3.6-1.5-3.6l-1.5-2.4-3.5-7.4s.7-.2,1.2,0,.4-1.2.4-1.7-.1-.5.3-.8-1-4.2-1.2-4.9-.2-1.9-.2-1.9l-.7-2.4,1.6.7s.9,1.2.9.5-.6-3.3-.9-3.6-1.9-3.9-1.9-3.9c0,0,.4-1.5.6-1.1s-.4-1.8-.4-1.8c0,0-2.4-2.8-1.4-2.5s1.7,0,1.7,0c0,0,0-1.6-.4-1.6s-.9-2-.9-2l-.9-1.3h-.9c0-.1-5.3,1.1-5.6,1.6s-1.6,2.4-1.6,3.3-.8,4.9-1.3,6c-.6,1.1-.8,4.9-2.2,6.2s-2.3,2.4-2.3,2.4c0,0-1.8.3-2.6.5s-1.2-.2-1.8,1-2.1,2.5-2.5,3.7-.4,2.7-.8,3.9-.8,2.9-1.1,3.4-.5.9-.9,1.4-.5,0-.4-.2,0-.5.1-.8c0-1.4.5-2.1.5-2.7s0-1.9,0-1.9c0,0-1.6,1.7-1.6,2.5s0,1.2-.4,1.5-.9.9-.9.9l-.8-.3s-.3-1.5,1.2-3.4,1.9-3.6,1.9-3.6l.8-1.3s1.1-.3,1.1-.8,1.1-3.1,1.7-4.3,2.3-3.1,2.3-3.1h1.1l1.4.9s1.3-2.5,2.2-3.6,2.7-4.1,2.7-4.5,1.9-2.7,1.9-3.7-.1-1.2,1.6-3.7c1.7-2.5,6.5-2.5,7.1-3.5" fill="#fff"/><path d="M13.3,31.6s-2.5,1.5-2.7,3.2-3,6.9-3,6.9l-.9,2s-.6,0-.6.9.6,2.2-.2,2.3-2.5,1.4-2.5,1.4c0,0-2,0-2,1.3s1.7,1.6.6,2-1.9,2.4-1.9,2.4c0,0,2.2-.7,2.6-1.4s.9-1.8.9-1.8l-.9-.8s.4,0,1.5-1.4,1.6-.6,2-.9.5-.9.5-.9c0,0,0-1,0-1.2s.6-1.8.6-1.8c0,0,.7-.9.7-1s.6-1.1.6-1.1c0,0-.3.2.2-.6s1-2.1,1.3-2.4.9-1.2,1-1.3.3-1.7.3-1.8.5-.9.9-1.3,1.1-1.5,1.1-1.5c0,0,.2-1.2-.2-1Z" fill="#fff"/><path d="M63.5,54.8s2.7-.9,3.8-1,4,0,4,0c0,0,1.4.3,1.7,0s3.2-.3,3.2-.3v-.7l1.2-1.8,1.5,3.3v.7l-3.7.3h-4.5c0-.1-2.3-.3-2.3-.3l-4.7-.3Z" fill="#fff"/><path d="M75.6,49c.5,0,1.4,2,1.4,2v1.7c0,0-.5.9-.5.9l-1.4.2-1.3.8,3,.9.5.6,1.9,1.2c.1,0,.2.1.3.2,1.1.8,2.6,1.1,3.4,2.5.3.6.3,1.4.3,2,.6.9,1.4,1.7,2,2.6,0,.6,0,.9.3,1.4-.3,0-.3.3-.3.6.9,1.4,2.3,2.6,3.1,4.3,1.4.9,2,2.3,3.1,3.4l.3-.3c-.6,0,0-.9-.6-.9.9-.3.9.9,1.7.9-.5-.5-.4-1.1-.3-1.9,0-.1,0-.3,0-.4h.6c0-.6.9-.3.6-.9.9,0,2,1.1,2,1.1l3.4-.3.3-1.7,2.8-.3s1.7-.8,1.4-1.1c2,.6,5.3,1.9,5.3,1.9h4.9s1.2-1.9,1.2-1.9c0,0,3.1,1,4.2,1.3.1,0,1.4-1.5,1.5-1.5l.8.2,2.6-1.7,1.9,3.8,2,.3.6.9,3.2-.7,1.1-2.8,2.8-.5v-.5l4.7,3.9.8-.5.3,1.3h1.2s1.4-1.6,1.4-1.6l3.2-.8v3.2s2,1.2,2,1.2l.3.5.6.2h.6c0,.1,2.3.5,2.3.5l.6-.7,5.3,1h.3c3.5-.1,4.2.6,7.6,0l2.4-.4c0,.3,2,.4,2.3.7,1.7-.3,2,0,3.7-.6-.6,0-1.6,0-2.2-.4l-1.3-.5c-4.4-.6-8,.1-12.2-.7h-.7c-1-.3-1.7-.4-1.7-.4l-2.3-.5-1.9.4-2-.9h-.5c0,0-.5.3-.5.3l-1.4-3.8-.3-.5-4.1,1.5h-.6c0-.1-2.2-1.6-2.2-1.6v-.3h-.7l-1.4-.9h-.6l-3.4-1.4-5.7,3.1-1.4-1.9-2-1.4-.3.2-2-.2-1.9.4c-.1,0-3,2.8-3,2.8l-3.5-1.6-5.9,1.4-9.4-1.8s-2.7-1.2-3.5-2c-1.4.3-2.6-.9-3.1-2,.6,0,0-.6.3-.9q-.3,0-.2-.2c0-.1,0-.2,0-.4,0-.9.6-1.7.6-2.6-2-2-3.4-4.6-3.6-7.3,0-.1,0-.2,0-.2l-1.5-2.6s-.9-.3-1.2-.5c-.3-.2-1.1-1-1.1-1l-1.6-.3v-1.3l-1.6-1.4s.2-.9,0-1.4c-.2-.6-.7-.7-.7-.7l-.9,1-.7.4-1.3-1.5s-.1-1.2-.8-1.4c-.7-.2-3.4-3.3-3.4-3.3v-1.7s-1.4-1.3-1.4-1.9-.1-1-.9-1.2-1.1-.9-1.4-1.1c-.3-.2-1.7-3-2.2-3.5-.4-.5-.7,1.3-.7,1.3l-1.8.3s-.1.6.1,1.1c.2.4-.8.4-.7.7s2.3,2.5,2.3,2.5l-.3.6,3.9,8.2-.8-.8,2,4.1s.1.7-.4.8" fill="#fff"/><path d="M188,74.7c-.1,0-.2,0-.3,0-1.9,0-15.8,0-15.8,0l-.2,1.4s14.1-.3,16-.2h161.7v-1.2h-161.3Z" fill="#fff"/><path d="M349.4,52.1v22.6h14.1v-33l-14.1,10.4Z" fill="#fff"/><path d="M349.4,84.1h14.1v-8.2h-14.1v8.2Z" fill="#fff"/><path d="M138.1,88.4v.2c-.3,0-.5.1-.6.3-.2.2-.4.5-.5.9l-2.7,6.6h-.2l-2.9-6.7c-.1-.3-.3-.6-.3-.6,0-.1-.2-.2-.4-.3-.1,0-.3-.1-.6-.1v-.2h3.2v.2c-.4,0-.6,0-.7.2-.1,0-.2.2-.2.3s0,.5.3.9l2,4.6,1.8-4.5c.2-.4.3-.8.3-.9s0-.2-.2-.3-.3-.2-.6-.2c0,0,0,0,0,0v-.2h2.4Z" fill="#fff"/><path d="M144.2,95.9v.2h-3.3v-.2h.3c.3,0,.6,0,.7-.3,0-.1.1-.4.1-.9v-5c0-.4,0-.7,0-.8,0,0-.1-.2-.2-.2-.2,0-.3-.1-.5-.1h-.3v-.2h3.3v.2h-.3c-.3,0-.5,0-.7.3,0,.1-.1.4-.1.9v5c0,.4,0,.7,0,.8,0,0,.1.2.2.2.2,0,.3.1.5.1h.3Z" fill="#fff"/><path d="M155.2,88.4v.2c-.3,0-.5.1-.6.3-.2.2-.4.5-.5.9l-2.7,6.6h-.2l-2.9-6.7c-.1-.3-.3-.6-.3-.6,0-.1-.2-.2-.4-.3-.1,0-.3-.1-.6-.1v-.2h3.2v.2c-.4,0-.6,0-.7.2-.1,0-.2.2-.2.3s0,.5.3.9l2,4.6,1.8-4.5c.2-.4.3-.8.3-.9s0-.2-.2-.3-.3-.2-.6-.2c0,0,0,0,0,0v-.2h2.4Z" fill="#fff"/><path d="M160.1,88.8v3.1h1.7c.4,0,.7,0,.9-.2.2-.2.3-.5.3-.9h.2v2.7h-.2c0-.4-.1-.6-.2-.7,0-.1-.2-.2-.3-.3-.2,0-.4-.1-.7-.1h-1.7v2.6c0,.3,0,.6,0,.6,0,0,0,.1.2.2,0,0,.2,0,.4,0h1.3c.4,0,.8,0,1,0s.4-.2.6-.4c.2-.2.5-.6.7-1.1h.2l-.7,1.9h-6v-.2h.3c.2,0,.4,0,.5-.1.1,0,.2-.2.2-.3,0-.1,0-.4,0-.8v-5c0-.5,0-.8-.1-.9-.1-.2-.4-.2-.7-.2h-.3v-.2h6v1.7c0,0-.1,0-.1,0,0-.4-.2-.7-.3-.8,0-.2-.2-.3-.4-.3-.2,0-.4,0-.8,0h-2.1Z" fill="#fff"/><path d="M179.2,94h.2s-.7,2.1-.7,2.1h-6v-.2h.3c.3,0,.6-.1.7-.3,0-.1.1-.4.1-.8v-5c0-.5,0-.8-.2-.9-.1-.2-.4-.3-.7-.3h-.3v-.2h3.5v.2c-.4,0-.7,0-.9.1-.2,0-.3.2-.3.3,0,.1,0,.4,0,.9v4.9c0,.3,0,.5,0,.7,0,0,.1.1.2.2,0,0,.4,0,.9,0h.6c.6,0,1,0,1.3-.1s.5-.2.7-.5c.2-.2.4-.6.6-1.1Z" fill="#fff"/><path d="M187.3,93.5h-3l-.5,1.2c-.1.3-.2.5-.2.7s0,.2.2.3c.1,0,.4.1.7.2v.2h-2.4v-.2c.3,0,.5-.1.6-.2.2-.2.4-.6.6-1.1l2.7-6.4h.2l2.7,6.5c.2.5.4.9.6,1,.2.2.4.2.7.3v.2h-3.1v-.2c.3,0,.5,0,.6-.2s.2-.2.2-.3,0-.4-.2-.8l-.5-1.1ZM187.1,93.1l-1.3-3.1-1.4,3.1h2.7Z" fill="#fff"/><path d="M202.2,96.1l-3-6.5v5.2c0,.5,0,.8.2.9.1.2.4.2.7.2h.3v.2h-2.7v-.2h.3c.3,0,.6,0,.7-.3,0-.1.1-.4.1-.8v-5.1c0-.3,0-.6-.1-.7,0-.1-.2-.2-.3-.3-.1,0-.4-.1-.7-.1v-.2h2.2l2.8,6.1,2.8-6.1h2.2v.2h-.3c-.3,0-.6,0-.7.3,0,.1-.1.4-.1.8v5.1c0,.5,0,.8.2.9.1.2.4.2.7.2h.3v.2h-3.3v-.2h.3c.3,0,.6,0,.7-.3,0-.1.1-.4.1-.8v-5.2l-3,6.5h-.2Z" fill="#fff"/><path d="M214.4,88.2c1,0,1.9.4,2.6,1.1s1.1,1.7,1.1,2.9-.4,2.2-1.1,2.9c-.7.8-1.6,1.2-2.7,1.2s-2-.4-2.7-1.1c-.7-.8-1.1-1.7-1.1-2.9s.4-2.2,1.3-3c.7-.7,1.6-1,2.6-1ZM214.3,88.6c-.7,0-1.3.3-1.7.8-.5.6-.8,1.6-.8,2.8s.3,2.2.8,2.9c.4.5,1,.8,1.6.8s1.3-.3,1.8-.9c.5-.6.7-1.5.7-2.7s-.3-2.3-.8-3c-.4-.5-1-.8-1.7-.8Z" fill="#fff"/><path d="M220.8,88.4h2.1l4.7,5.8v-4.5c0-.5,0-.8-.2-.9-.1-.2-.4-.2-.7-.2h-.3v-.2h2.7v.2h-.3c-.3,0-.6,0-.7.3,0,.1-.1.4-.1.8v6.5h-.2l-5.1-6.3v4.8c0,.5,0,.8.2.9.1.2.4.2.7.2h.3v.2h-2.7v-.2h.3c.3,0,.6,0,.7-.3,0-.1.1-.4.1-.8v-5.4c-.2-.3-.4-.4-.5-.5s-.3-.2-.5-.2c-.1,0-.3,0-.5,0v-.2Z" fill="#fff"/><path d="M238.6,88.4v1.8c0,0-.1,0-.1,0,0-.3,0-.5-.2-.7-.1-.2-.3-.4-.5-.5-.2-.1-.5-.2-.8-.2h-1.1v5.9c0,.5,0,.8.2.9.1.2.4.2.7.2h.3v.2h-3.3v-.2h.3c.3,0,.6,0,.7-.3,0-.1.1-.4.1-.8v-5.9h-.9c-.4,0-.6,0-.8,0-.2,0-.4.2-.5.4-.1.2-.2.5-.3.8h-.2v-1.8h6.4Z" fill="#fff"/><path d="M245.7,93.5h-3l-.5,1.2c-.1.3-.2.5-.2.7s0,.2.2.3c.1,0,.4.1.7.2v.2h-2.4v-.2c.3,0,.5-.1.6-.2.2-.2.4-.6.6-1.1l2.7-6.4h.2l2.7,6.5c.2.5.4.9.6,1,.2.2.4.2.7.3v.2h-3.1v-.2c.3,0,.5,0,.6-.2.1,0,.2-.2.2-.3s0-.4-.2-.8l-.5-1.1ZM245.6,93.1l-1.3-3.1-1.4,3.1h2.7Z" fill="#fff"/><path d="M251,88.4h2.1l4.7,5.8v-4.5c0-.5,0-.8-.2-.9-.1-.2-.4-.2-.7-.2h-.3v-.2h2.7v.2h-.3c-.3,0-.6,0-.7.3,0,.1-.1.4-.1.8v6.5h-.2l-5.1-6.3v4.8c0,.5,0,.8.2.9.1.2.4.2.7.2h.3v.2h-2.7v-.2h.3c.3,0,.6,0,.7-.3,0-.1.1-.4.1-.8v-5.4c-.2-.3-.4-.4-.5-.5s-.3-.2-.5-.2c-.1,0-.3,0-.5,0v-.2ZM253.7,87.7h-.2c0-.5.1-.9.3-1.1.2-.2.5-.3.8-.3s.3,0,.4,0c.2,0,.4.2.7.4s.5.3.7.3.2,0,.3-.2c0-.1.2-.3.2-.6h.2c0,.4,0,.6-.1.8,0,.2-.2.4-.4.5-.2.1-.4.2-.5.2-.3,0-.7-.2-1.1-.5-.2-.2-.4-.3-.5-.3s-.2,0-.2,0c-.2,0-.3,0-.4.2,0,0,0,.3-.2.6Z" fill="#fff"/><path d="M267.3,93.5h-3l-.5,1.2c-.1.3-.2.5-.2.7s0,.2.2.3c.1,0,.4.1.7.2v.2h-2.4v-.2c.3,0,.5-.1.6-.2.2-.2.4-.6.6-1.1l2.7-6.4h.2l2.7,6.5c.2.5.4.9.6,1,.2.2.4.2.7.3v.2h-3.1v-.2c.3,0,.5,0,.6-.2.1,0,.2-.2.2-.3s0-.4-.2-.8l-.5-1.1ZM267.2,93.1l-1.3-3.1-1.4,3.1h2.7Z" fill="#fff"/><rect y="92.5" width="125.7" height=".9" fill="#fff"/><rect x="274.8" y="92.5" width="88.7" height=".9" fill="#fff"/></svg>